<?xml version="1.0" standalone="no"?>
<!DOCTYPE svg PUBLIC "-//W3C//DTD SVG 20010904//EN"
 "http://www.w3.org/TR/2001/REC-SVG-20010904/DTD/svg10.dtd">
<svg version="1.0" xmlns="http://www.w3.org/2000/svg"
 width="80.000000pt" height="40.000000pt" viewBox="0 0 80.000000 40.000000"
 preserveAspectRatio="xMidYMid meet">

<g transform="translate(0.000000,40.000000) scale(0.100000,-0.100000)"
fill="rgba(0, 136, 169, 0.8)" stroke="none">
<path d="M30 164 c0 -41 4 -63 10 -59 5 3 10 17 10 31 0 13 5 24 10 24 6 0 10
-11 10 -24 0 -14 5 -28 10 -31 6 -4 10 18 10 59 0 37 -4 66 -10 66 -5 0 -10
-11 -10 -25 0 -14 -4 -25 -10 -25 -5 0 -10 11 -10 25 0 14 -4 25 -10 25 -6 0
-10 -29 -10 -66z"/>
<path d="M136 218 c-24 -78 -26 -144 -4 -104 12 21 34 21 42 0 14 -36 17 -3 5
55 -7 40 -16 61 -26 61 -7 0 -15 -6 -17 -12z m20 -65 c-11 -11 -19 6 -11 24 8
17 8 17 12 0 3 -10 2 -21 -1 -24z"/>
<path d="M210 170 l0 -60 30 0 c23 0 30 4 30 20 0 11 -4 20 -10 20 -5 0 -10
-4 -10 -10 0 -5 -4 -10 -10 -10 -5 0 -10 18 -10 40 0 22 5 40 10 40 6 0 10 -4
10 -10 0 -5 5 -10 10 -10 6 0 10 9 10 20 0 16 -7 20 -30 20 l-30 0 0 -60z"/>
<path d="M292 168 c3 -62 18 -81 28 -37 5 21 6 21 18 -6 18 -38 27 -24 12 19
-8 26 -8 40 0 56 15 28 2 41 -16 16 -12 -17 -14 -18 -14 -3 0 9 -7 17 -15 17
-13 0 -15 -11 -13 -62z"/>
<path d="M405 218 c-13 -42 -21 -109 -14 -114 5 -3 12 2 15 10 8 21 24 20 40
-1 12 -16 13 -17 14 -1 0 39 -24 118 -37 118 -8 0 -15 -6 -18 -12z m21 -65
c-11 -11 -17 4 -9 23 7 18 8 18 11 1 2 -10 1 -21 -2 -24z"/>
<path d="M480 172 c0 -32 3 -61 6 -64 3 -3 17 -3 32 1 25 7 27 11 27 62 0 54
0 54 -32 57 l-33 3 0 -59z m42 23 c0 -5 -5 -11 -11 -13 -6 -2 -11 4 -11 13 0
9 5 15 11 13 6 -2 11 -8 11 -13z m0 -50 c0 -5 -5 -11 -11 -13 -6 -2 -11 4 -11
13 0 9 5 15 11 13 6 -2 11 -8 11 -13z"/>
<path d="M570 175 c0 -68 0 -68 28 -70 31 -1 40 15 13 22 -18 4 -21 13 -21 54
0 27 -4 49 -10 49 -5 0 -10 -25 -10 -55z"/>
<path d="M650 172 c0 -32 2 -61 5 -64 8 -8 55 3 55 13 0 5 -9 9 -20 9 -11 0
-20 7 -20 15 0 8 7 15 15 15 8 0 15 5 15 10 0 6 -7 10 -15 10 -8 0 -15 7 -15
15 0 8 9 15 20 15 11 0 20 5 20 10 0 6 -13 10 -30 10 -30 0 -30 0 -30 -58z"/>
</g>
</svg>
